<?xml version="1.0" encoding="utf-8"?>
<!-- Generator: Adobe Illustrator 24.3.0, SVG Export Plug-In . SVG Version: 6.00 Build 0)  -->
<svg version="1.1" id="Layer_2" xmlns="http://www.w3.org/2000/svg" xmlns:xlink="http://www.w3.org/1999/xlink" x="0px" y="0px"
	 viewBox="0 0 552.3 168.6" style="enable-background:new 0 0 552.3 168.6;" xml:space="preserve">
<style type="text/css">
	.st0{fill:#2366AA;}
	.st1{fill:#FBD501;}
	.st2{fill:#0F3E6D;}
</style>
<g>
	<polygon class="st0" points="88,0 0,84 98.1,84 137.3,47 	"/>
	<rect y="146.6" class="st1" width="552.3" height="22"/>
	<polygon class="st2" points="201.7,76.1 154,31 98,84 126.9,84 154,57.5 181.2,84 210,84 552.3,84 552.3,76.1 	"/>
	<g>
		<g>
			<path class="st0" d="M0,93.3h25v9.3H11.2v8.8h13v9.1h-13v17.2H0V93.3z"/>
			<path class="st0" d="M30.7,93.3h11.2v35.1h14.4v9.4H30.7V93.3z"/>
			<path class="st0" d="M71.5,128.1l-2.1,9.6H58.2l11.4-44.5h14.3l11,44.5H83.4l-2.2-9.6H71.5z M79.9,119.8l-1.6-8.2
				c-0.5-2.5-1.3-6.7-1.8-9.3h-0.1c-0.6,2.7-1.2,6.9-1.8,9.4l-1.7,8.2H79.9z"/>
			<path class="st0" d="M102.3,103.1h-9.7v-9.8h30.8v9.8h-9.9v34.7h-11.2V103.1z"/>
			<path class="st2" d="M134.4,93.3h25v9.3h-13.8v8.8h13v9.1h-13v17.2h-11.2V93.3z"/>
			<path class="st2" d="M189.5,119.4h-13.2v9h14.8v9.3h-26V93.3h25.1v9.3h-14v7.7h13.2V119.4z"/>
			<path class="st2" d="M220.5,119.4h-13.2v9h14.8v9.3h-26V93.3h25.1v9.3h-14v7.7h13.2V119.4z"/>
			<path class="st1" d="M269.6,122.7c-0.2-4.4-0.4-10.1-0.3-16h-0.2c-1.1,5.4-2.7,11.5-3.7,15.5l-3.9,14.7h-8.5l-3.4-14.7
				c-0.9-3.9-2.2-10-3-15.5h-0.1c-0.2,5.6-0.5,11.6-0.7,16l-0.7,15.1h-9.9l3-44.5h13.7l2.9,13c1.2,5.2,2.4,10.8,3.2,16h0.2
				c1-5.2,2.2-11.1,3.4-16.1l3.1-12.9h13.5l2.5,44.5h-10.5L269.6,122.7z"/>
			<path class="st1" d="M285.8,93.3H297v35.1h14.4v9.4h-25.6V93.3z"/>
			<path class="st1" d="M316.7,126.7c2.4,1.2,6.2,2.3,9.9,2.3c4,0,5.8-1.5,5.8-3.8c0-2.4-1.9-3.7-6.5-5.6c-7.4-3.4-10.7-7.8-10.7-13
				c0-7.6,5.8-13.8,16.6-13.8c4.3,0,7.7,0.9,10,2l-2,9.2c-1.7-0.8-4.3-1.8-8-1.8c-3.5,0-5.4,1.5-5.4,3.5c0,2.1,1.7,3.2,7.1,5.6
				c7.2,3.2,10.1,7.6,10.1,13.1c0,8-6.1,14.1-17.5,14.1c-4.7,0-9.2-1.2-11.3-2.3L316.7,126.7z"/>
			<path class="st0" d="M356.3,93.9c3.2-0.5,7.7-0.9,12.6-0.9c6,0,10.8,0.8,14,3.4c2.9,2.4,4.1,5.4,4.1,9.6c0,5-3.3,9.2-7.2,10.8
				v0.2c2.9,1.3,4.5,4,5.5,8.1c1.1,4.5,2.5,10.9,3.4,12.6H377c-0.6-1.2-1.7-5.2-2.7-10.4c-1-5.3-2.4-6.5-5.5-6.5h-1.5v16.8h-11.1
				V93.9z M367.3,112.7h2.3c4,0,6.1-2.5,6.1-5.8s-1.8-5.4-5.4-5.5c-1.5,0-2.6,0.1-3.1,0.3V112.7z"/>
			<path class="st0" d="M416.6,119.4h-13.2v9h14.8v9.3h-26V93.3h25.1v9.3h-14v7.7h13.2V119.4z"/>
			<path class="st0" d="M434.3,128.1l-2.1,9.6H421l11.4-44.5h14.3l11,44.5h-11.6l-2.2-9.6H434.3z M442.7,119.8l-1.6-8.2
				c-0.5-2.5-1.3-6.7-1.8-9.3h-0.1c-0.6,2.7-1.2,6.9-1.8,9.4l-1.7,8.2H442.7z"/>
			<path class="st0" d="M461.2,93.3h11.2v35.1h14.4v9.4h-25.6V93.3z"/>
			<path class="st0" d="M494.8,103.1h-9.7v-9.8h30.8v9.8H506v34.7h-11.2V103.1z"/>
			<path class="st0" d="M528.7,137.8v-17.2l-12.2-27.3h12.4l3.3,10.2c1,3,1.7,5.6,2.5,8.6h0.1c0.7-2.9,1.4-5.7,2.3-8.7l3-10.1h12.2
				l-12.5,26.9v17.6H528.7z"/>
		</g>
	</g>
</g>
</svg>
